# File created by Blade
# Date/Time:  Thu Sep 25 19:26:26 2014
# Frame Rate: 120.000 fps
#------------------------------------------------------
:FULLY-SPECIFIED
:DEGREES
500
root -2.791809 31.792110 -11.784285 107.551389 -20.349029 -4.594670
Spine 40.162154 8.456941 17.714621
Head 2.644250 -14.654804 14.575310
LeftShoulder 1.501981 -18.981665 48.047765
LeftArm 56.154847 -37.772070 -26.152782
LeftForeArm 50.860101 0.000000 49.356984
LeftHand -33.685770 0.000000 39.835244
LeftHandThumb1 -26.253704 0.000000 33.147579
RightShoulder 3.113369 66.002606 -43.926836
RightArm 8.759217 11.429675 42.541985
RightForeArm -27.619517 -0.000000 38.279843
RightHand -8.445655 -0.000000 -48.349639
RightHandThumb1 -24.326973 -0.000000 -32.862282
LeftUpLeg -105.830286 18.442526 -23.319273
LeftLeg -2.279304 -0.000000 0.000000
LeftFoot -6.594882 18.298692 -36.683307
LeftToeBase 10.322029 -0.000000 -0.000000
RightUpLeg -117.111118 -3.981873 6.656182
RightLeg 0.769031 -0.000000 -0.000000
RightFoot 6.591586 1.684590 6.803599
RightToeBase 0.257409 -0.000000 -0.000000
501
root -2.779004 31.793748 -11.787847 107.523386 -20.203311 -4.544281
Spine 40.190980 8.439638 17.688822
Head 2.141905 -14.467920 14.708988
LeftShoulder 1.328345 -19.190191 48.224495
LeftArm 56.371387 -37.537135 -26.074806
LeftForeArm 50.747380 0.000000 48.993753
LeftHand -33.727044 -0.000000 39.942592
LeftHandThumb1 -26.253704 0.000000 33.147579
RightShoulder 2.920432 66.024990 -44.049563
RightArm 8.703698 11.481127 42.584192
RightForeArm -27.548243 -0.000000 38.236090
RightHand -8.476721 -0.000000 -48.261209
RightHandThumb1 -24.326973 -0.000000 -32.862282
LeftUpLeg -105.884306 18.398646 -23.250383
LeftLeg -2.272664 -0.000000 0.000000
LeftFoot -6.506410 18.258396 -36.644061
LeftToeBase 10.212607 -0.000000 -0.000000
RightUpLeg -117.084035 -4.052501 6.721039
RightLeg 0.745731 -0.000000 -0.000000
RightFoot 6.605086 1.589720 6.839199
RightToeBase 0.241766 -0.000000 -0.000000
502
root -2.763518 31.796969 -11.789251 107.498884 -20.053952 -4.446351
Spine 40.173304 8.345236 17.702987
Head 1.754318 -14.275750 14.708815
LeftShoulder 1.183531 -19.330665 48.298427
LeftArm 56.625847 -37.364087 -25.948256
LeftForeArm 50.715198 -0.000000 48.538690
LeftHand -33.572787 -0.000000 40.549487
LeftHandThumb1 -26.253704 0.000000 33.147579
RightShoulder 2.847410 66.098144 -44.160975
RightArm 8.518288 11.610245 42.643461
RightForeArm -27.529442 -0.000000 38.286645
RightHand -8.494532 -0.000000 -48.145826
RightHandThumb1 -24.326973 -0.000000 -32.862282
LeftUpLeg -105.906325 18.307149 -23.102024
LeftLeg -2.261703 -0.000000 0.000000
LeftFoot -6.473472 18.264042 -36.562534
LeftToeBase 10.280726 -0.000000 -0.000000
RightUpLeg -117.081999 -4.156317 6.827485
RightLeg 0.725002 -0.000000 -0.000000
RightFoot 6.610003 1.525199 6.882414
RightToeBase 0.247803 -0.000000 -0.000000
503
root -2.746722 31.799714 -11.790416 107.498280 -19.909938 -4.360799
Spine 40.143758 8.262287 17.684401
Head 1.261783 -13.993065 14.783104
LeftShoulder 0.949723 -19.409993 48.386294
LeftArm 57.047224 -37.160925 -25.915148
LeftForeArm 50.605847 -0.000000 48.073220
LeftHand -33.761640 -0.000000 40.467627
LeftHandThumb1 -26.253704 0.000000 33.147579
RightShoulder 2.657923 66.190431 -44.329081
RightArm 8.402760 11.698754 42.761538
RightForeArm -27.453223 -0.000000 38.271666
RightHand -8.385761 -0.000000 -47.897000
RightHandThumb1 -24.326973 -0.000000 -32.862282
LeftUpLeg -105.957339 18.213638 -23.001658
LeftLeg -2.269448 -0.000000 0.000000
LeftFoot -6.407703 18.227539 -36.565404
LeftToeBase 10.197108 -0.000000 -0.000000
RightUpLeg -117.086452 -4.256118 6.918853
RightLeg 0.676628 -0.000000 -0.000000
RightFoot 6.644259 1.459032 6.936399
RightToeBase 0.236909 -0.000000 -0.000000
504
root -2.730941 31.802746 -11.792305 107.491058 -19.787512 -4.305559
Spine 40.153604 8.253971 17.645986
Head 0.750208 -13.742104 14.955523
LeftShoulder 0.825960 -19.582910 48.484650
LeftArm 57.353171 -37.017821 -25.843911
LeftForeArm 50.669168 0.000000 47.642341
LeftHand -33.777235 -0.000000 40.866364
LeftHandThumb1 -26.253704 0.000000 33.147579
RightShoulder 2.360663 66.277967 -44.532177
RightArm 8.342111 11.751973 42.872971
RightForeArm -27.399082 -0.000000 38.188527
RightHand -8.335486 -0.000000 -47.652325
RightHandThumb1 -24.326973 -0.000000 -32.862282
LeftUpLeg -106.013696 18.137542 -22.965201
LeftLeg -2.266743 -0.000000 0.000000
LeftFoot -6.323999 18.160496 -36.486567
LeftToeBase 10.223490 -0.000000 -0.000000
RightUpLeg -117.082951 -4.329658 7.010028
RightLeg 0.660345 -0.000000 -0.000000
RightFoot 6.646515 1.464516 7.055215
RightToeBase 0.380376 -0.000000 -0.000000
505
root -2.711338 31.805715 -11.791751 107.491106 -19.646585 -4.193649
Spine 40.087008 8.198621 17.685997
Head 0.392901 -13.593476 14.936529
LeftShoulder 0.776226 -19.633950 48.453209
LeftArm 57.763933 -36.969625 -25.768812
LeftForeArm 50.741455 -0.000000 47.181357
LeftHand -33.841449 -0.000000 40.967250
LeftHandThumb1 -26.253704 0.000000 33.147579
RightShoulder 2.142672 66.297945 -44.711502
RightArm 8.251813 11.823089 42.955466
RightForeArm -27.282608 -0.000000 38.149568
RightHand -8.207938 -0.000000 -47.303411
RightHandThumb1 -24.326973 -0.000000 -32.862282
LeftUpLeg -106.058844 18.004879 -22.873313
LeftLeg -2.271222 -0.000000 0.000000
LeftFoot -6.262227 18.126107 -36.410904
LeftToeBase 10.251217 -0.000000 -0.000000
RightUpLeg -117.107747 -4.448770 7.129487
RightLeg 0.624793 -0.000000 -0.000000
RightFoot 6.670531 1.406106 7.114768
RightToeBase 0.369254 -0.000000 -0.000000
506
root -2.693007 31.808534 -11.794708 107.493203 -19.508157 -4.112268
Spine 40.050323 8.186111 17.697035
Head -0.040774 -13.398346 15.029445
LeftShoulder 0.722363 -19.563814 48.449179
LeftArm 58.249553 -37.069655 -25.773919
LeftForeArm 50.839552 -0.000000 46.736979
LeftHand -33.785050 -0.000000 41.003974
LeftHandThumb1 -26.253704 0.000000 33.147579
RightShoulder 1.927225 66.364770 -44.861509
RightArm 8.119549 11.908708 43.016757
RightForeArm -27.094648 -0.000000 38.172404
RightHand -8.151466 -0.000000 -47.036240
RightHandThumb1 -24.326973 -0.000000 -32.862282
LeftUpLeg -106.121636 17.904232 -22.800703
LeftLeg -2.266999 -0.000000 0.000000
LeftFoot -6.197940 18.060284 -36.369435
LeftToeBase 10.233977 -0.000000 -0.000000
RightUpLeg -117.133933 -4.535839 7.228320
RightLeg 0.608479 -0.000000 -0.000000
RightFoot 6.687655 1.346306 7.122393
RightToeBase 0.428671 -0.000000 -0.000000
507
root -2.675108 31.810436 -11.797362 107.463590 -19.379468 -4.042439
Spine 40.071206 8.118515 17.661948
Head -0.565901 -13.049872 15.105111
LeftShoulder 0.613744 -19.583944 48.495090
LeftArm 58.607520 -37.070305 -25.746542
LeftForeArm 50.928784 -0.000000 46.347881
LeftHand -33.870774 -0.000000 41.045780
LeftHandThumb1 -26.253704 0.000000 33.147579
RightShoulder 1.689157 66.386363 -45.039074
RightArm 8.134674 12.126700 43.185715
RightForeArm -26.933676 -0.000000 38.123366
RightHand -8.116623 0.000000 -46.825381
RightHandThumb1 -24.326973 -0.000000 -32.862282
LeftUpLeg -106.143774 17.829016 -22.730467
LeftLeg -2.273721 -0.000000 0.000000
LeftFoot -6.131436 17.950581 -36.504060
LeftToeBase 10.046669 -0.000000 -0.000000
RightUpLeg -117.118588 -4.617929 7.313805
RightLeg 0.579942 -0.000000 -0.000000
RightFoot 6.726789 1.252831 7.142586
RightToeBase 0.408550 -0.000000 -0.000000
508
root -2.657793 31.812031 -11.799715 107.465194 -19.243603 -3.976473
Spine 40.056214 8.049179 17.611840
Head -1.017512 -12.715077 15.270396
LeftShoulder 0.455651 -19.690046 48.543558
LeftArm 58.940445 -36.939449 -25.738608
LeftForeArm 50.885334 -0.000000 46.024545
LeftHand -33.878399 -0.000000 40.751016
LeftHandThumb1 -26.253704 0.000000 33.147579
RightShoulder 1.500893 66.568909 -45.195610
RightArm 7.955455 12.161468 43.285952
RightForeArm -26.849757 -0.000000 38.109340
RightHand -7.980879 -0.000000 -46.570972
RightHandThumb1 -24.326973 -0.000000 -32.862282
LeftUpLeg -106.205236 17.735913 -22.713100
LeftLeg -2.299279 -0.000000 0.000000
LeftFoot -6.021223 17.823653 -36.522591
LeftToeBase 9.907461 -0.000000 -0.000000
RightUpLeg -117.127607 -4.694409 7.402563
RightLeg 0.545967 -0.000000 -0.000000
RightFoot 6.761343 1.186754 7.156409
RightToeBase 0.359358 -0.000000 -0.000000
509
root -2.639824 31.813711 -11.801771 107.474096 -19.115354 -3.911902
Spine 40.043589 8.027678 17.560701
Head -1.637567 -12.394248 15.485288
LeftShoulder 0.294760 -19.795685 48.619819
LeftArm 59.321367 -36.864440 -25.781361
LeftForeArm 50.850740 0.000000 45.735798
LeftHand -33.770750 -0.000000 40.611638
LeftHandThumb1 -26.253704 0.000000 33.147579
RightShoulder 1.257062 66.682589 -45.362187
RightArm 7.838075 12.220131 43.377400
RightForeArm -26.870034 -0.000000 38.067373
RightHand -8.091799 0.000000 -46.431552
RightHandThumb1 -24.326973 -0.000000 -32.862282
LeftUpLeg -106.260665 17.642433 -22.683448
LeftLeg -2.335614 -0.000000 0.000000
LeftFoot -5.929566 17.752731 -36.384239
LeftToeBase 10.040539 -0.000000 -0.000000
RightUpLeg -117.145970 -4.770619 7.482918
RightLeg 0.521383 -0.000000 -0.000000
RightFoot 6.772477 1.114615 7.143778
RightToeBase 0.377531 -0.000000 -0.000000
